<?xml version="1.0" encoding="UTF-8" standalone="no"?>
<!-- Created with Inkscape (http://www.inkscape.org/) -->

<svg
   version="1.1"
   id="svg1"
   width="142.34"
   height="37.796001"
   viewBox="0 0 142.33999 37.796003"
   sodipodi:docname="logo.svg"
   inkscape:version="1.3.2 (091e20e, 2023-11-25, custom)"
   xmlns:inkscape="http://www.inkscape.org/namespaces/inkscape"
   xmlns:sodipodi="http://sodipodi.sourceforge.net/DTD/sodipodi-0.dtd"
   xmlns="http://www.w3.org/2000/svg"
   xmlns:svg="http://www.w3.org/2000/svg">
  <defs
     id="defs1">
    <clipPath
       clipPathUnits="userSpaceOnUse"
       id="clipPath2">
      <path
         d="M 0,0 H 283 V 76 H 0 Z"
         transform="scale(1,-1.2636299)"
         id="path2" />
    </clipPath>
  </defs>
  <sodipodi:namedview
     id="namedview1"
     pagecolor="#ffffff"
     bordercolor="#000000"
     borderopacity="0.25"
     inkscape:showpageshadow="2"
     inkscape:pageopacity="0.0"
     inkscape:pagecheckerboard="0"
     inkscape:deskcolor="#d1d1d1"
     showgrid="false"
     inkscape:zoom="1.7133392"
     inkscape:cx="60.116526"
     inkscape:cy="17.801496"
     inkscape:window-width="1920"
     inkscape:window-height="1009"
     inkscape:window-x="-8"
     inkscape:window-y="-8"
     inkscape:window-maximized="1"
     inkscape:current-layer="layer1">
    <inkscape:page
       x="0"
       y="0"
       id="page1"
       width="142.34"
       height="37.796001"
       margin="0"
       bleed="0" />
  </sodipodi:namedview>
  <g
     id="g1"
     inkscape:groupmode="layer"
     inkscape:label="onix logo"
     style="display:inline"
     transform="translate(-48.851116,-11.224505)" />
  <g
     inkscape:groupmode="layer"
     id="layer1"
     inkscape:label="Expanded text"
     transform="translate(-48.851116,-11.224505)">
    <g
       inkscape:groupmode="layer"
       id="g16"
       inkscape:label="Editable text"
       style="display:none">
      <text
         id="text3"
         xml:space="preserve"
         transform="scale(0.99451581,1.0055144)"
         style="font-size:16.0882px;fill:#ff0000;stroke:none;stroke-width:1.34069"
         x="268.12402"
         y="45.379063"><tspan
           id="tspan3"
           style="font-variant:normal;font-weight:normal;font-size:50.9927px;font-family:'Sofia Sans Extra Condensed';writing-mode:lr-tb;fill:#ff0000;fill-opacity:1;fill-rule:nonzero;stroke:none;stroke-width:1.34069"
           x="268.12402"
           y="45.379063">Bonsai</tspan><tspan
           id="tspan4"
           style="font-variant:normal;font-weight:normal;font-size:50.9927px;font-family:'Sofia Sans Extra Condensed';writing-mode:lr-tb;fill:#ff0000;fill-opacity:1;fill-rule:nonzero;stroke:none;stroke-width:1.34069"
           x="268.12402"
           y="87.951591">Onix1</tspan></text>
    </g>
    <g
       id="g3"
       transform="translate(-90.824011)">
      <g
         id="g2"
         transform="matrix(0.48805584,0,0,0.48805584,107.94104,5.746313)">
        <path
           id="path4"
           d="m 92.328091,83.483998 c -0.64,0 -1.249333,-0.129333 -1.801333,-0.369333 -0.557334,-0.234667 -1.057334,-0.578667 -1.474667,-1.005334 -0.421333,-0.421333 -0.76,-0.926666 -0.994667,-1.489333 -0.234666,-0.562667 -0.364,-1.177333 -0.364,-1.828 0,-0.646667 0.129334,-1.261333 0.364,-1.822667 0.234667,-0.562666 0.573334,-1.068 0.994667,-1.496 0.417333,-0.421333 0.917333,-0.765333 1.474667,-1.004 0.552,-0.234666 1.161333,-0.365333 1.801333,-0.365333 2.442666,0 4.792,-0.525333 6.942666,-1.458666 2.150663,-0.937334 4.098663,-2.290667 5.740003,-3.952 1.64533,-1.662667 2.984,-3.630667 3.91066,-5.802667 0.928,-2.172 1.44267,-4.546666 1.44267,-7.021333 0,-0.645333 0.13067,-1.26 0.36533,-1.822667 0.23467,-0.562666 0.57334,-1.068 0.99467,-1.489333 0.416,-0.426667 0.916,-0.770667 1.47333,-1.005333 0.552,-0.24 1.16667,-0.369334 1.80267,-0.369334 0.64,0 1.25467,0.129334 1.80667,0.369334 0.55733,0.234666 1.05733,0.578666 1.47466,1.005333 0.42134,0.421333 0.76,0.926667 0.99467,1.489333 0.23467,0.562667 0.364,1.177334 0.364,1.822667 0,3.745333 -0.78,7.338666 -2.18667,10.630666 -1.40133,3.292 -3.42666,6.276 -5.91733,8.792 -2.48933,2.514667 -5.43733,4.562667 -8.692,5.984 -3.255999,1.417333 -6.813333,2.208 -10.515999,2.208 z"
           style="display:inline;fill:#9322ff;fill-opacity:1;fill-rule:nonzero;stroke:none;stroke-width:1.33333" />
        <path
           id="path5"
           d="m 165.50542,84.526665 c -0.64133,0 -1.25066,-0.130667 -1.808,-0.370667 -0.552,-0.234667 -1.052,-0.577333 -1.47333,-1.005333 -0.41733,-0.421334 -0.75467,-0.926667 -0.98933,-1.489334 -0.23467,-0.562666 -0.36534,-1.177333 -0.36534,-1.822666 V 45.453332 c 0,-0.650666 0.13067,-1.265333 0.36534,-1.828 0.23466,-0.557333 0.572,-1.062666 0.98933,-1.489333 0.42133,-0.422667 0.92133,-0.766667 1.47333,-1.005333 0.55734,-0.234667 1.16667,-0.370667 1.808,-0.370667 0.64,0 1.24934,0.136 1.80667,0.370667 0.552,0.238666 1.052,0.582666 1.47467,1.005333 0.416,0.426667 0.76,0.932 0.99466,1.489333 0.23467,0.562667 0.364,1.177334 0.364,1.828 v 34.385333 c 0,0.645333 -0.12933,1.26 -0.364,1.822666 -0.23466,0.562667 -0.57866,1.068 -0.99466,1.489334 -0.42267,0.428 -0.92267,0.770666 -1.47467,1.005333 -0.55733,0.24 -1.16667,0.370667 -1.80667,0.370667 z"
           style="display:inline;fill:#00ade2;fill-opacity:1;fill-rule:nonzero;stroke:none;stroke-width:1.33333" />
        <path
           id="path6"
           d="m 239.19742,84.526665 c -0.38,0 -0.76,-0.048 -1.12933,-0.141334 -0.37067,-0.09333 -0.72934,-0.229333 -1.06267,-0.412 -0.33867,-0.181333 -0.656,-0.410666 -0.948,-0.676 -0.28667,-0.270666 -0.54667,-0.578666 -0.76533,-0.928 L 215.44809,51.109332 205.53075,35.478666 195.60942,19.844 c -0.34933,-0.541334 -0.568,-1.130667 -0.66667,-1.734667 -0.104,-0.598667 -0.088,-1.208 0.0413,-1.797333 0.12533,-0.582667 0.36,-1.145334 0.704,-1.650667 0.33866,-0.5 0.78133,-0.942667 1.32266,-1.292 0.536,-0.353333 1.12534,-0.577333 1.71867,-0.676 0.59333,-0.105333 1.19733,-0.08933 1.776,0.04133 0.57733,0.125334 1.13467,0.369334 1.63467,0.713334 0.496,0.344 0.93333,0.792 1.28133,1.333333 l 9.91733,15.630666 9.92134,15.629333 9.91733,15.630666 9.92133,15.630667 c 0.34934,0.546666 0.568,1.134666 0.66667,1.738666 0.104,0.598667 0.0893,1.209334 -0.036,1.797334 -0.13067,0.582666 -0.36533,1.145333 -0.708,1.650666 -0.33867,0.5 -0.78133,0.942667 -1.324,1.297334 -0.192,0.125333 -0.39067,0.229333 -0.59333,0.322666 -0.20267,0.09333 -0.41067,0.172 -0.62534,0.234667 -0.208,0.06267 -0.42133,0.109333 -0.63466,0.134667 -0.21334,0.032 -0.432,0.048 -0.64667,0.048 z"
           style="display:inline;fill:#ff9b24;fill-opacity:1;fill-rule:nonzero;stroke:none;stroke-width:1.33333" />
        <path
           id="path7"
           d="m 199.51609,72.021332 c -0.26534,0 -0.532,-0.02133 -0.792,-0.068 -0.26,-0.04667 -0.52134,-0.114667 -0.776,-0.204 -0.25067,-0.09333 -0.5,-0.208 -0.74,-0.348 -0.23467,-0.136 -0.46267,-0.297334 -0.68134,-0.484 -0.49066,-0.417334 -0.876,-0.917334 -1.14666,-1.458667 -0.276,-0.541333 -0.43734,-1.130667 -0.48934,-1.729333 -0.0467,-0.598667 0.016,-1.202667 0.192,-1.786667 0.17734,-0.582667 0.47467,-1.136 0.88667,-1.630667 l 9.02,-10.811999 9.016,-10.812 9.02133,-10.808 9.01467,-10.812 c 0.41733,-0.5 0.90667,-0.885333 1.44267,-1.161333 0.53733,-0.276 1.12,-0.442666 1.70933,-0.490666 0.59333,-0.052 1.192,0.01067 1.77067,0.193333 0.572,0.182667 1.124,0.478666 1.60933,0.896 0.48933,0.416 0.87467,0.916 1.14533,1.458666 0.276,0.541334 0.43734,1.129334 0.48934,1.729334 0.0467,0.598666 -0.0147,1.202666 -0.192,1.785333 -0.17734,0.584 -0.47467,1.136 -0.88534,1.630667 l -9.02133,10.811999 -9.016,10.813333 -9.02,10.806667 -9.016,10.813333 c -0.22933,0.276 -0.484,0.514667 -0.75467,0.724 -0.272,0.208 -0.56266,0.385333 -0.86533,0.52 -0.30133,0.141333 -0.62,0.245333 -0.94267,0.318667 -0.32266,0.06667 -0.65066,0.104 -0.97866,0.104 z"
           style="display:inline;fill:#f95e19;fill-opacity:1;fill-rule:nonzero;stroke:none;stroke-width:1.33333" />
        <path
           id="path8"
           d="m 182.51076,84.526665 c -0.64134,0 -1.25067,-0.130667 -1.808,-0.370667 -0.552,-0.234667 -1.052,-0.577333 -1.47334,-1.005333 -0.42266,-0.421334 -0.76,-0.926667 -0.99466,-1.489334 -0.23467,-0.562666 -0.36534,-1.177333 -0.36534,-1.822666 V 55.869332 c 0,-0.645333 0.13067,-1.26 0.36534,-1.822667 0.23466,-0.562666 0.572,-1.068 0.99466,-1.489333 0.42134,-0.426667 0.92134,-0.770667 1.47334,-1.005333 0.55733,-0.24 1.16666,-0.369334 1.808,-0.369334 0.64,0 1.24933,0.129334 1.80666,0.369334 0.552,0.234666 1.052,0.578666 1.47467,1.005333 0.416,0.421333 0.76,0.926667 0.99467,1.489333 0.23466,0.562667 0.364,1.177334 0.364,1.822667 v 23.969333 c 0,0.645333 -0.12934,1.26 -0.364,1.822666 -0.23467,0.562667 -0.57867,1.068 -0.99467,1.489334 -0.42267,0.428 -0.92267,0.770666 -1.47467,1.005333 -0.55733,0.24 -1.16666,0.370667 -1.80666,0.370667 z"
           style="display:inline;fill:#517c60;fill-opacity:1;fill-rule:nonzero;stroke:none;stroke-width:1.33333" />
        <path
           id="path9"
           d="m 182.51076,23.046666 c -0.64134,0 -1.25067,-0.129333 -1.808,-0.369333 -0.552,-0.234667 -1.052,-0.578667 -1.47334,-1.005334 -0.42266,-0.421333 -0.76,-0.926666 -0.99466,-1.489333 C 178.00009,19.62 177.86942,19.005333 177.86942,18.36 v -1.048 c 0,-0.645334 0.13067,-1.26 0.36534,-1.822667 0.23466,-0.562667 0.572,-1.068 0.99466,-1.489333 0.42134,-0.426667 0.92134,-0.770667 1.47334,-1.005334 0.55733,-0.24 1.16666,-0.369333 1.808,-0.369333 0.64,0 1.24933,0.129333 1.80666,0.369333 0.552,0.234667 1.052,0.578667 1.47467,1.005334 0.416,0.421333 0.76,0.926666 0.99467,1.489333 0.23466,0.562667 0.364,1.177333 0.364,1.822667 v 1.048 c 0,0.645333 -0.12934,1.26 -0.364,1.822666 -0.23467,0.562667 -0.57867,1.068 -0.99467,1.489333 -0.42267,0.426667 -0.92267,0.770667 -1.47467,1.005334 -0.55733,0.24 -1.16666,0.369333 -1.80666,0.369333 z"
           style="display:inline;fill:#6dba00;fill-opacity:1;fill-rule:nonzero;stroke:none;stroke-width:1.33333" />
        <path
           id="path10"
           d="m 130.46409,60.562665 c -0.64133,0 -1.25067,-0.136 -1.808,-0.369333 -0.552,-0.24 -1.052,-0.584 -1.47333,-1.005333 -0.41734,-0.428 -0.76134,-0.933334 -0.99467,-1.490667 -0.23467,-0.561333 -0.36533,-1.176 -0.36533,-1.828 V 30.338666 c 0,-0.645333 0.13066,-1.26 0.36533,-1.822667 0.23333,-0.562666 0.57733,-1.068 0.99467,-1.489333 0.42133,-0.428 0.92133,-0.772 1.47333,-1.005333 0.55733,-0.24 1.16667,-0.370667 1.808,-0.370667 0.64,0 1.24933,0.130667 1.80133,0.370667 0.55734,0.233333 1.05734,0.577333 1.47467,1.005333 0.42133,0.421333 0.76,0.926667 0.99467,1.489333 0.23466,0.562667 0.364,1.177334 0.364,1.822667 v 25.530666 c 0,0.652 -0.12934,1.266667 -0.364,1.828 -0.23467,0.557333 -0.57334,1.062667 -0.99467,1.490667 -0.41733,0.421333 -0.91733,0.765333 -1.47467,1.005333 -0.552,0.233333 -1.16133,0.369333 -1.80133,0.369333 z"
           style="display:inline;fill:#008ce2;fill-opacity:1;fill-rule:nonzero;stroke:none;stroke-width:1.33333" />
        <path
           id="path11"
           d="m 165.50542,50.139999 c -0.64133,0 -1.25066,-0.129334 -1.808,-0.369334 -0.552,-0.234666 -1.052,-0.577333 -1.47333,-1.005333 -0.41733,-0.421333 -0.75467,-0.926667 -0.98933,-1.489333 -0.23467,-0.562667 -0.36534,-1.177333 -0.36534,-1.822667 0,-1.437333 -0.364,-2.808 -1.01466,-4.057333 -0.652,-1.245333 -1.6,-2.369333 -2.76667,-3.313333 -1.16667,-0.942667 -2.552,-1.708 -4.09333,-2.233334 -1.54134,-0.526666 -3.23467,-0.822666 -5.01067,-0.822666 -1.776,0 -3.468,0.296 -5.01067,0.822666 -1.54133,0.525334 -2.932,1.290667 -4.09866,2.233334 -1.16667,0.944 -2.10934,2.068 -2.76,3.313333 -0.656,1.249333 -1.016,2.62 -1.016,4.057333 0,0.645334 -0.12934,1.26 -0.364,1.822667 -0.23467,0.562666 -0.57334,1.068 -0.99467,1.489333 -0.41733,0.428 -0.91733,0.770667 -1.47467,1.005333 -0.552,0.24 -1.16133,0.369334 -1.80133,0.369334 -0.64133,0 -1.25067,-0.129334 -1.808,-0.369334 -0.552,-0.234666 -1.052,-0.577333 -1.47333,-1.005333 -0.41734,-0.421333 -0.76134,-0.926667 -0.99467,-1.489333 -0.23467,-0.562667 -0.36533,-1.177333 -0.36533,-1.822667 0,-2.729333 0.62533,-5.333333 1.74533,-7.704 1.12533,-2.364 2.74933,-4.498666 4.75467,-6.290666 2.00533,-1.797333 4.39066,-3.245333 7.04133,-4.250667 2.652,-1 5.56267,-1.557333 8.62,-1.557333 3.052,0 5.964,0.557333 8.61467,1.557333 2.652,1.005334 5.04133,2.453334 7.04666,4.250667 2.00534,1.792 3.63067,3.926666 4.756,6.290666 1.12,2.370667 1.744,4.974667 1.744,7.704 0,0.645334 -0.12933,1.26 -0.364,1.822667 -0.23466,0.562666 -0.57866,1.068 -0.99466,1.489333 -0.42267,0.428 -0.92267,0.770667 -1.47467,1.005333 -0.55733,0.24 -1.16667,0.369334 -1.80667,0.369334 z"
           style="display:inline;fill:#008ce2;fill-opacity:1;fill-rule:nonzero;stroke:none;stroke-width:1.33333" />
        <path
           id="path12"
           d="m 130.46409,84.526665 c -0.64133,0 -1.25067,-0.130667 -1.808,-0.370667 -0.552,-0.234667 -1.052,-0.577333 -1.47333,-1.005333 -0.41734,-0.421334 -0.76134,-0.926667 -0.99467,-1.489334 -0.23467,-0.562666 -0.36533,-1.177333 -0.36533,-1.822666 V 55.869332 c 0,-0.645333 0.13066,-1.26 0.36533,-1.822667 0.23333,-0.562666 0.57733,-1.068 0.99467,-1.489333 0.42133,-0.426667 0.92133,-0.770667 1.47333,-1.005333 0.55733,-0.24 1.16667,-0.369334 1.808,-0.369334 0.64,0 1.24933,0.129334 1.80133,0.369334 0.55734,0.234666 1.05734,0.578666 1.47467,1.005333 0.42133,0.421333 0.76,0.926667 0.99467,1.489333 0.23466,0.562667 0.364,1.177334 0.364,1.822667 v 23.969333 c 0,0.645333 -0.12934,1.26 -0.364,1.822666 -0.23467,0.562667 -0.57334,1.068 -0.99467,1.489334 -0.41733,0.428 -0.91733,0.770666 -1.47467,1.005333 -0.552,0.24 -1.16133,0.370667 -1.80133,0.370667 z"
           style="display:inline;fill:#10639b;fill-opacity:1;fill-rule:nonzero;stroke:none;stroke-width:1.33333" />
        <path
           id="path13"
           d="m 182.51076,60.562665 c -0.64134,0 -1.25067,-0.136 -1.808,-0.369333 -0.552,-0.24 -1.052,-0.584 -1.47334,-1.005333 -0.42266,-0.428 -0.76,-0.933334 -0.99466,-1.490667 -0.23467,-0.561333 -0.36534,-1.176 -0.36534,-1.828 V 34.510666 c 0,-0.646667 0.13067,-1.265333 0.36534,-1.828 0.23466,-0.557333 0.572,-1.062667 0.99466,-1.489333 0.42134,-0.422667 0.92134,-0.766667 1.47334,-1.005334 0.55733,-0.234666 1.16666,-0.365333 1.808,-0.365333 0.64,0 1.24933,0.130667 1.80666,0.365333 0.552,0.238667 1.052,0.582667 1.47467,1.005334 0.416,0.426666 0.76,0.932 0.99467,1.489333 0.23466,0.562667 0.364,1.181333 0.364,1.828 v 21.358666 c 0,0.652 -0.12934,1.266667 -0.364,1.828 -0.23467,0.557333 -0.57867,1.062667 -0.99467,1.490667 -0.42267,0.421333 -0.92267,0.765333 -1.47467,1.005333 -0.55733,0.233333 -1.16666,0.369333 -1.80666,0.369333 z"
           style="display:inline;fill:#6dba00;fill-opacity:1;fill-rule:nonzero;stroke:none;stroke-width:1.33333" />
        <path
           id="path14"
           d="m 115.00009,60.562665 c -0.636,0 -1.25067,-0.136 -1.80267,-0.369333 -0.55733,-0.24 -1.05733,-0.584 -1.47333,-1.005333 -0.42133,-0.428 -0.76,-0.933334 -0.99467,-1.490667 -0.23466,-0.561333 -0.36533,-1.176 -0.36533,-1.828 0,-2.468 -0.51467,-4.842667 -1.44267,-7.02 -0.92666,-2.172 -2.26533,-4.141333 -3.91066,-5.802666 -1.64134,-1.661334 -3.58934,-3.016 -5.740003,-3.953334 -2.150666,-0.937333 -4.5,-1.457333 -6.942666,-1.457333 -0.64,0 -1.249333,-0.136 -1.801333,-0.370667 -0.557334,-0.238666 -1.057334,-0.582666 -1.474667,-1.005333 -0.421333,-0.421333 -0.76,-0.926667 -0.994667,-1.489333 -0.234666,-0.562667 -0.364,-1.177334 -0.364,-1.828 0,-0.645333 0.129334,-1.26 0.364,-1.822667 0.234667,-0.562666 0.573334,-1.068 0.994667,-1.489333 0.417333,-0.428 0.917333,-0.770667 1.474667,-1.005333 0.552,-0.24 1.161333,-0.370667 1.801333,-0.370667 3.702666,0 7.26,0.792 10.515999,2.209333 3.25467,1.421334 6.20267,3.468 8.692,5.989333 2.49067,2.516 4.516,5.5 5.91733,8.786667 1.40667,3.290666 2.18667,6.890666 2.18667,10.629333 0,0.652 -0.12933,1.266667 -0.364,1.828 -0.23467,0.557333 -0.57333,1.062667 -0.99467,1.490667 -0.41733,0.421333 -0.91733,0.765333 -1.47466,1.005333 -0.552,0.233333 -1.16667,0.369333 -1.80667,0.369333 z"
           style="display:inline;fill:#ba78f9;fill-opacity:1;fill-rule:nonzero;stroke:none;stroke-width:1.33333" />
        <path
           id="path15"
           d="m 69.656091,60.562665 c -0.64,0 -1.249333,-0.136 -1.806666,-0.369333 -0.552,-0.24 -1.052,-0.584 -1.474667,-1.005333 -0.416,-0.428 -0.754667,-0.933334 -0.994667,-1.490667 -0.234666,-0.561333 -0.358666,-1.176 -0.358666,-1.828 0,-3.738667 0.781333,-7.338667 2.181333,-10.629333 1.406667,-3.286667 3.433333,-6.270667 5.917333,-8.786667 2.489334,-2.521333 5.442667,-4.567999 8.697333,-5.989333 3.250667,-1.417333 6.813334,-2.209333 10.510667,-2.209333 0.641333,0 1.250666,0.130667 1.808,0.370667 0.552,0.234666 1.052,0.577333 1.473333,1.005333 0.417333,0.421333 0.76,0.926667 0.994667,1.489333 0.234666,0.562667 0.365333,1.177334 0.365333,1.822667 0,0.650666 -0.130667,1.265333 -0.365333,1.828 -0.234667,0.562666 -0.577334,1.068 -0.994667,1.489333 -0.421333,0.422667 -0.921333,0.766667 -1.473333,1.005333 -0.557334,0.234667 -1.166667,0.370667 -1.808,0.370667 -2.442667,0 -4.792,0.52 -6.942667,1.457333 -2.145333,0.937334 -4.098666,2.292 -5.74,3.953334 -1.645333,1.661333 -2.983999,3.630666 -3.910666,5.802666 -0.928,2.177333 -1.442667,4.552 -1.442667,7.02 0,0.652 -0.130666,1.266667 -0.365333,1.828 -0.233333,0.557333 -0.572,1.062667 -0.994667,1.490667 -0.416,0.421333 -0.916,0.765333 -1.473333,1.005333 -0.552,0.233333 -1.161333,0.369333 -1.802667,0.369333 z"
           style="display:inline;fill:#9322ff;fill-opacity:1;fill-rule:nonzero;stroke:none;stroke-width:1.33333" />
        <path
           id="path16"
           d="m 92.328091,83.483998 c -3.697333,0 -7.26,-0.790667 -10.510667,-2.208 -3.254666,-1.421333 -6.207999,-3.469333 -8.697333,-5.984 -2.484,-2.516 -4.510666,-5.5 -5.917333,-8.792 -1.4,-3.292 -2.181333,-6.885333 -2.181333,-10.630666 0,-0.645333 0.124,-1.26 0.358666,-1.822667 0.24,-0.562666 0.578667,-1.068 0.994667,-1.489333 0.422667,-0.426667 0.922667,-0.770667 1.474667,-1.005333 0.557333,-0.24 1.166666,-0.369334 1.806666,-0.369334 0.641334,0 1.250667,0.129334 1.802667,0.369334 0.557333,0.234666 1.057333,0.578666 1.473333,1.005333 0.422667,0.421333 0.761334,0.926667 0.994667,1.489333 0.234667,0.562667 0.365333,1.177334 0.365333,1.822667 0,2.474667 0.514667,4.849333 1.442667,7.021333 0.926667,2.172 2.265333,4.14 3.910666,5.802667 1.641334,1.661333 3.594667,3.014666 5.74,3.952 2.150667,0.933333 4.5,1.458666 6.942667,1.458666 0.641333,0 1.250666,0.130667 1.808,0.365333 0.552,0.238667 1.052,0.582667 1.473333,1.004 0.417333,0.428 0.76,0.933334 0.994667,1.496 0.234666,0.561334 0.365333,1.176 0.365333,1.822667 0,0.650667 -0.130667,1.265333 -0.365333,1.828 -0.234667,0.562667 -0.577334,1.068 -0.994667,1.489333 -0.421333,0.426667 -0.921333,0.770667 -1.473333,1.005334 -0.557334,0.24 -1.166667,0.369333 -1.808,0.369333 z"
           style="display:inline;fill:#6f1472;fill-opacity:1;fill-rule:nonzero;stroke:none;stroke-width:1.33333" />
        <text
           style="font-size:50.9927px;font-family:'Sofia Sans Extra Condensed';fill:#ffffff;stroke-width:1.34069"
           transform="scale(0.99451581,1.0055144)"
           x="268.12402"
           y="45.379063"
           id="text28">B</text>
        <text
           style="font-size:50.9927px;font-family:'Sofia Sans Extra Condensed';fill:#ffffff;stroke-width:1.34069"
           transform="scale(0.99451581,1.0055144)"
           x="286.63443"
           y="45.379063"
           id="text27">o</text>
        <text
           style="font-size:50.9927px;font-family:'Sofia Sans Extra Condensed';fill:#ffffff;stroke-width:1.34069"
           transform="scale(0.99451581,1.0055144)"
           x="303.86993"
           y="45.379063"
           id="text26">n</text>
        <text
           style="font-size:50.9927px;font-family:'Sofia Sans Extra Condensed';fill:#ffffff;stroke-width:1.34069"
           transform="scale(0.99451581,1.0055144)"
           x="321.56439"
           y="45.379063"
           id="text25">s</text>
        <text
           style="font-size:50.9927px;font-family:'Sofia Sans Extra Condensed';fill:#ffffff;stroke-width:1.34069"
           transform="scale(0.99451581,1.0055144)"
           x="336.30127"
           y="45.379063"
           id="text24">a</text>
        <text
           style="font-size:50.9927px;font-family:'Sofia Sans Extra Condensed';fill:#ffffff;stroke-width:1.34069"
           transform="scale(0.99451581,1.0055144)"
           x="352.41498"
           y="45.379063"
           id="text23">i</text>
        <text
           style="font-size:50.9927px;font-family:'Sofia Sans Extra Condensed';fill:#ffffff;stroke-width:1.34069"
           transform="scale(0.99451584,1.0055144)"
           x="268.12402"
           y="87.87426"
           id="text22">O</text>
        <text
           style="font-size:50.9927px;font-family:'Sofia Sans Extra Condensed';fill:#ffffff;stroke-width:1.34069"
           transform="scale(0.99451584,1.0055144)"
           x="288.47012"
           y="87.87426"
           id="text21">n</text>
        <text
           style="font-size:50.9927px;font-family:'Sofia Sans Extra Condensed';fill:#ffffff;stroke-width:1.34069"
           transform="scale(0.99451584,1.0055144)"
           x="306.16458"
           y="87.87426"
           id="text20">i</text>
        <text
           style="font-size:50.9927px;font-family:'Sofia Sans Extra Condensed';fill:#ffffff;stroke-width:1.34069"
           transform="scale(0.99451584,1.0055144)"
           x="314.17041"
           y="87.87426"
           id="text19">x</text>
        <text
           style="font-size:50.9927px;font-family:'Sofia Sans Extra Condensed';fill:#ffffff;stroke-width:1.34069"
           transform="scale(0.99451584,1.0055144)"
           x="330.13113"
           y="87.87426"
           id="text18">1</text>
      </g>
    </g>
  </g>
</svg>
