<?xml version="1.0" encoding="UTF-8" standalone="no"?>
<!-- Created with Inkscape (http://www.inkscape.org/) -->

<svg
   version="1.1"
   id="svg1"
   width="142.34"
   height="37.796001"
   viewBox="0 0 142.33999 37.796003"
   sodipodi:docname="onix-logo.svg"
   inkscape:version="1.3.2 (091e20e, 2023-11-25, custom)"
   xmlns:inkscape="http://www.inkscape.org/namespaces/inkscape"
   xmlns:sodipodi="http://sodipodi.sourceforge.net/DTD/sodipodi-0.dtd"
   xmlns="http://www.w3.org/2000/svg"
   xmlns:svg="http://www.w3.org/2000/svg">
  <defs
     id="defs1">
    <clipPath
       clipPathUnits="userSpaceOnUse"
       id="clipPath2">
      <path
         d="M 0,0 H 283 V 76 H 0 Z"
         transform="scale(1,-1.2636299)"
         id="path2" />
    </clipPath>
  </defs>
  <sodipodi:namedview
     id="namedview1"
     pagecolor="#ffffff"
     bordercolor="#000000"
     borderopacity="0.25"
     inkscape:showpageshadow="2"
     inkscape:pageopacity="0.0"
     inkscape:pagecheckerboard="0"
     inkscape:deskcolor="#d1d1d1"
     showgrid="false"
     inkscape:zoom="6.8533568"
     inkscape:cx="79.814902"
     inkscape:cy="3.1371488"
     inkscape:window-width="1920"
     inkscape:window-height="1009"
     inkscape:window-x="-8"
     inkscape:window-y="-8"
     inkscape:window-maximized="1"
     inkscape:current-layer="svg1"
     showguides="true">
    <inkscape:page
       x="0"
       y="0"
       id="page1"
       width="142.34"
       height="37.796001"
       margin="0"
       bleed="0" />
    <sodipodi:guide
       position="57.341026,2.020461"
       orientation="0,-1"
       id="guide2"
       inkscape:locked="false" />
  </sodipodi:namedview>
  <rect
     style="display:none;fill:#000000;stroke:none;stroke-width:39.9987"
     id="rect1"
     width="142.34"
     height="37.796001"
     x="48.851116"
     y="11.224505"
     transform="translate(-48.851116,-11.224505)" />
  <g
     id="g1"
     inkscape:groupmode="layer"
     inkscape:label="onix logo"
     style="display:inline"
     transform="translate(-48.851116,-11.224505)" />
  <g
     inkscape:groupmode="layer"
     id="layer1"
     inkscape:label="Expanded text"
     transform="translate(-48.851116,-11.224505)">
    <g
       inkscape:groupmode="layer"
       id="g16"
       inkscape:label="Editable text"
       style="display:none">
      <text
         id="text3"
         xml:space="preserve"
         transform="scale(0.99451581,1.0055144)"
         style="font-size:16.0882px;fill:#ff0000;stroke:none;stroke-width:1.34069"
         x="268.12402"
         y="45.379063"><tspan
           id="tspan3"
           style="font-variant:normal;font-weight:normal;font-size:50.9927px;font-family:'Sofia Sans Extra Condensed';writing-mode:lr-tb;fill:#ff0000;fill-opacity:1;fill-rule:nonzero;stroke:none;stroke-width:1.34069"
           x="268.12402"
           y="45.379063">Bonsai</tspan><tspan
           id="tspan4"
           style="font-variant:normal;font-weight:normal;font-size:50.9927px;font-family:'Sofia Sans Extra Condensed';writing-mode:lr-tb;fill:#ff0000;fill-opacity:1;fill-rule:nonzero;stroke:none;stroke-width:1.34069"
           x="268.12402"
           y="87.951591">Onix1</tspan></text>
    </g>
    <g
       id="g3"
       transform="translate(-90.824011)">
      <g
         id="g2"
         transform="matrix(0.48805584,0,0,0.48805584,107.94104,5.746313)">
        <path
           id="path4"
           d="m 92.328091,83.483998 c -0.64,0 -1.249333,-0.129333 -1.801333,-0.369333 -0.557334,-0.234667 -1.057334,-0.578667 -1.474667,-1.005334 -0.421333,-0.421333 -0.76,-0.926666 -0.994667,-1.489333 -0.234666,-0.562667 -0.364,-1.177333 -0.364,-1.828 0,-0.646667 0.129334,-1.261333 0.364,-1.822667 0.234667,-0.562666 0.573334,-1.068 0.994667,-1.496 0.417333,-0.421333 0.917333,-0.765333 1.474667,-1.004 0.552,-0.234666 1.161333,-0.365333 1.801333,-0.365333 2.442666,0 4.792,-0.525333 6.942666,-1.458666 2.150663,-0.937334 4.098663,-2.290667 5.740003,-3.952 1.64533,-1.662667 2.984,-3.630667 3.91066,-5.802667 0.928,-2.172 1.44267,-4.546666 1.44267,-7.021333 0,-0.645333 0.13067,-1.26 0.36533,-1.822667 0.23467,-0.562666 0.57334,-1.068 0.99467,-1.489333 0.416,-0.426667 0.916,-0.770667 1.47333,-1.005333 0.552,-0.24 1.16667,-0.369334 1.80267,-0.369334 0.64,0 1.25467,0.129334 1.80667,0.369334 0.55733,0.234666 1.05733,0.578666 1.47466,1.005333 0.42134,0.421333 0.76,0.926667 0.99467,1.489333 0.23467,0.562667 0.364,1.177334 0.364,1.822667 0,3.745333 -0.78,7.338666 -2.18667,10.630666 -1.40133,3.292 -3.42666,6.276 -5.91733,8.792 -2.48933,2.514667 -5.43733,4.562667 -8.692,5.984 -3.255999,1.417333 -6.813333,2.208 -10.515999,2.208 z"
           style="display:inline;fill:#9322ff;fill-opacity:1;fill-rule:nonzero;stroke:none;stroke-width:1.33333" />
        <path
           id="path5"
           d="m 165.50542,84.526665 c -0.64133,0 -1.25066,-0.130667 -1.808,-0.370667 -0.552,-0.234667 -1.052,-0.577333 -1.47333,-1.005333 -0.41733,-0.421334 -0.75467,-0.926667 -0.98933,-1.489334 -0.23467,-0.562666 -0.36534,-1.177333 -0.36534,-1.822666 V 45.453332 c 0,-0.650666 0.13067,-1.265333 0.36534,-1.828 0.23466,-0.557333 0.572,-1.062666 0.98933,-1.489333 0.42133,-0.422667 0.92133,-0.766667 1.47333,-1.005333 0.55734,-0.234667 1.16667,-0.370667 1.808,-0.370667 0.64,0 1.24934,0.136 1.80667,0.370667 0.552,0.238666 1.052,0.582666 1.47467,1.005333 0.416,0.426667 0.76,0.932 0.99466,1.489333 0.23467,0.562667 0.364,1.177334 0.364,1.828 v 34.385333 c 0,0.645333 -0.12933,1.26 -0.364,1.822666 -0.23466,0.562667 -0.57866,1.068 -0.99466,1.489334 -0.42267,0.428 -0.92267,0.770666 -1.47467,1.005333 -0.55733,0.24 -1.16667,0.370667 -1.80667,0.370667 z"
           style="display:inline;fill:#00ade2;fill-opacity:1;fill-rule:nonzero;stroke:none;stroke-width:1.33333" />
        <path
           id="path6"
           d="m 239.19742,84.526665 c -0.38,0 -0.76,-0.048 -1.12933,-0.141334 -0.37067,-0.09333 -0.72934,-0.229333 -1.06267,-0.412 -0.33867,-0.181333 -0.656,-0.410666 -0.948,-0.676 -0.28667,-0.270666 -0.54667,-0.578666 -0.76533,-0.928 L 215.44809,51.109332 205.53075,35.478666 195.60942,19.844 c -0.34933,-0.541334 -0.568,-1.130667 -0.66667,-1.734667 -0.104,-0.598667 -0.088,-1.208 0.0413,-1.797333 0.12533,-0.582667 0.36,-1.145334 0.704,-1.650667 0.33866,-0.5 0.78133,-0.942667 1.32266,-1.292 0.536,-0.353333 1.12534,-0.577333 1.71867,-0.676 0.59333,-0.105333 1.19733,-0.08933 1.776,0.04133 0.57733,0.125334 1.13467,0.369334 1.63467,0.713334 0.496,0.344 0.93333,0.792 1.28133,1.333333 l 9.91733,15.630666 9.92134,15.629333 9.91733,15.630666 9.92133,15.630667 c 0.34934,0.546666 0.568,1.134666 0.66667,1.738666 0.104,0.598667 0.0893,1.209334 -0.036,1.797334 -0.13067,0.582666 -0.36533,1.145333 -0.708,1.650666 -0.33867,0.5 -0.78133,0.942667 -1.324,1.297334 -0.192,0.125333 -0.39067,0.229333 -0.59333,0.322666 -0.20267,0.09333 -0.41067,0.172 -0.62534,0.234667 -0.208,0.06267 -0.42133,0.109333 -0.63466,0.134667 -0.21334,0.032 -0.432,0.048 -0.64667,0.048 z"
           style="display:inline;fill:#ff9b24;fill-opacity:1;fill-rule:nonzero;stroke:none;stroke-width:1.33333" />
        <path
           id="path7"
           d="m 199.51609,72.021332 c -0.26534,0 -0.532,-0.02133 -0.792,-0.068 -0.26,-0.04667 -0.52134,-0.114667 -0.776,-0.204 -0.25067,-0.09333 -0.5,-0.208 -0.74,-0.348 -0.23467,-0.136 -0.46267,-0.297334 -0.68134,-0.484 -0.49066,-0.417334 -0.876,-0.917334 -1.14666,-1.458667 -0.276,-0.541333 -0.43734,-1.130667 -0.48934,-1.729333 -0.0467,-0.598667 0.016,-1.202667 0.192,-1.786667 0.17734,-0.582667 0.47467,-1.136 0.88667,-1.630667 l 9.02,-10.811999 9.016,-10.812 9.02133,-10.808 9.01467,-10.812 c 0.41733,-0.5 0.90667,-0.885333 1.44267,-1.161333 0.53733,-0.276 1.12,-0.442666 1.70933,-0.490666 0.59333,-0.052 1.192,0.01067 1.77067,0.193333 0.572,0.182667 1.124,0.478666 1.60933,0.896 0.48933,0.416 0.87467,0.916 1.14533,1.458666 0.276,0.541334 0.43734,1.129334 0.48934,1.729334 0.0467,0.598666 -0.0147,1.202666 -0.192,1.785333 -0.17734,0.584 -0.47467,1.136 -0.88534,1.630667 l -9.02133,10.811999 -9.016,10.813333 -9.02,10.806667 -9.016,10.813333 c -0.22933,0.276 -0.484,0.514667 -0.75467,0.724 -0.272,0.208 -0.56266,0.385333 -0.86533,0.52 -0.30133,0.141333 -0.62,0.245333 -0.94267,0.318667 -0.32266,0.06667 -0.65066,0.104 -0.97866,0.104 z"
           style="display:inline;fill:#f95e19;fill-opacity:1;fill-rule:nonzero;stroke:none;stroke-width:1.33333" />
        <path
           id="path8"
           d="m 182.51076,84.526665 c -0.64134,0 -1.25067,-0.130667 -1.808,-0.370667 -0.552,-0.234667 -1.052,-0.577333 -1.47334,-1.005333 -0.42266,-0.421334 -0.76,-0.926667 -0.99466,-1.489334 -0.23467,-0.562666 -0.36534,-1.177333 -0.36534,-1.822666 V 55.869332 c 0,-0.645333 0.13067,-1.26 0.36534,-1.822667 0.23466,-0.562666 0.572,-1.068 0.99466,-1.489333 0.42134,-0.426667 0.92134,-0.770667 1.47334,-1.005333 0.55733,-0.24 1.16666,-0.369334 1.808,-0.369334 0.64,0 1.24933,0.129334 1.80666,0.369334 0.552,0.234666 1.052,0.578666 1.47467,1.005333 0.416,0.421333 0.76,0.926667 0.99467,1.489333 0.23466,0.562667 0.364,1.177334 0.364,1.822667 v 23.969333 c 0,0.645333 -0.12934,1.26 -0.364,1.822666 -0.23467,0.562667 -0.57867,1.068 -0.99467,1.489334 -0.42267,0.428 -0.92267,0.770666 -1.47467,1.005333 -0.55733,0.24 -1.16666,0.370667 -1.80666,0.370667 z"
           style="display:inline;fill:#517c60;fill-opacity:1;fill-rule:nonzero;stroke:none;stroke-width:1.33333" />
        <path
           id="path9"
           d="m 182.51076,23.046666 c -0.64134,0 -1.25067,-0.129333 -1.808,-0.369333 -0.552,-0.234667 -1.052,-0.578667 -1.47334,-1.005334 -0.42266,-0.421333 -0.76,-0.926666 -0.99466,-1.489333 C 178.00009,19.62 177.86942,19.005333 177.86942,18.36 v -1.048 c 0,-0.645334 0.13067,-1.26 0.36534,-1.822667 0.23466,-0.562667 0.572,-1.068 0.99466,-1.489333 0.42134,-0.426667 0.92134,-0.770667 1.47334,-1.005334 0.55733,-0.24 1.16666,-0.369333 1.808,-0.369333 0.64,0 1.24933,0.129333 1.80666,0.369333 0.552,0.234667 1.052,0.578667 1.47467,1.005334 0.416,0.421333 0.76,0.926666 0.99467,1.489333 0.23466,0.562667 0.364,1.177333 0.364,1.822667 v 1.048 c 0,0.645333 -0.12934,1.26 -0.364,1.822666 -0.23467,0.562667 -0.57867,1.068 -0.99467,1.489333 -0.42267,0.426667 -0.92267,0.770667 -1.47467,1.005334 -0.55733,0.24 -1.16666,0.369333 -1.80666,0.369333 z"
           style="display:inline;fill:#6dba00;fill-opacity:1;fill-rule:nonzero;stroke:none;stroke-width:1.33333" />
        <path
           id="path10"
           d="m 130.46409,60.562665 c -0.64133,0 -1.25067,-0.136 -1.808,-0.369333 -0.552,-0.24 -1.052,-0.584 -1.47333,-1.005333 -0.41734,-0.428 -0.76134,-0.933334 -0.99467,-1.490667 -0.23467,-0.561333 -0.36533,-1.176 -0.36533,-1.828 V 30.338666 c 0,-0.645333 0.13066,-1.26 0.36533,-1.822667 0.23333,-0.562666 0.57733,-1.068 0.99467,-1.489333 0.42133,-0.428 0.92133,-0.772 1.47333,-1.005333 0.55733,-0.24 1.16667,-0.370667 1.808,-0.370667 0.64,0 1.24933,0.130667 1.80133,0.370667 0.55734,0.233333 1.05734,0.577333 1.47467,1.005333 0.42133,0.421333 0.76,0.926667 0.99467,1.489333 0.23466,0.562667 0.364,1.177334 0.364,1.822667 v 25.530666 c 0,0.652 -0.12934,1.266667 -0.364,1.828 -0.23467,0.557333 -0.57334,1.062667 -0.99467,1.490667 -0.41733,0.421333 -0.91733,0.765333 -1.47467,1.005333 -0.552,0.233333 -1.16133,0.369333 -1.80133,0.369333 z"
           style="display:inline;fill:#008ce2;fill-opacity:1;fill-rule:nonzero;stroke:none;stroke-width:1.33333" />
        <path
           id="path11"
           d="m 165.50542,50.139999 c -0.64133,0 -1.25066,-0.129334 -1.808,-0.369334 -0.552,-0.234666 -1.052,-0.577333 -1.47333,-1.005333 -0.41733,-0.421333 -0.75467,-0.926667 -0.98933,-1.489333 -0.23467,-0.562667 -0.36534,-1.177333 -0.36534,-1.822667 0,-1.437333 -0.364,-2.808 -1.01466,-4.057333 -0.652,-1.245333 -1.6,-2.369333 -2.76667,-3.313333 -1.16667,-0.942667 -2.552,-1.708 -4.09333,-2.233334 -1.54134,-0.526666 -3.23467,-0.822666 -5.01067,-0.822666 -1.776,0 -3.468,0.296 -5.01067,0.822666 -1.54133,0.525334 -2.932,1.290667 -4.09866,2.233334 -1.16667,0.944 -2.10934,2.068 -2.76,3.313333 -0.656,1.249333 -1.016,2.62 -1.016,4.057333 0,0.645334 -0.12934,1.26 -0.364,1.822667 -0.23467,0.562666 -0.57334,1.068 -0.99467,1.489333 -0.41733,0.428 -0.91733,0.770667 -1.47467,1.005333 -0.552,0.24 -1.16133,0.369334 -1.80133,0.369334 -0.64133,0 -1.25067,-0.129334 -1.808,-0.369334 -0.552,-0.234666 -1.052,-0.577333 -1.47333,-1.005333 -0.41734,-0.421333 -0.76134,-0.926667 -0.99467,-1.489333 -0.23467,-0.562667 -0.36533,-1.177333 -0.36533,-1.822667 0,-2.729333 0.62533,-5.333333 1.74533,-7.704 1.12533,-2.364 2.74933,-4.498666 4.75467,-6.290666 2.00533,-1.797333 4.39066,-3.245333 7.04133,-4.250667 2.652,-1 5.56267,-1.557333 8.62,-1.557333 3.052,0 5.964,0.557333 8.61467,1.557333 2.652,1.005334 5.04133,2.453334 7.04666,4.250667 2.00534,1.792 3.63067,3.926666 4.756,6.290666 1.12,2.370667 1.744,4.974667 1.744,7.704 0,0.645334 -0.12933,1.26 -0.364,1.822667 -0.23466,0.562666 -0.57866,1.068 -0.99466,1.489333 -0.42267,0.428 -0.92267,0.770667 -1.47467,1.005333 -0.55733,0.24 -1.16667,0.369334 -1.80667,0.369334 z"
           style="display:inline;fill:#008ce2;fill-opacity:1;fill-rule:nonzero;stroke:none;stroke-width:1.33333" />
        <path
           id="path12"
           d="m 130.46409,84.526665 c -0.64133,0 -1.25067,-0.130667 -1.808,-0.370667 -0.552,-0.234667 -1.052,-0.577333 -1.47333,-1.005333 -0.41734,-0.421334 -0.76134,-0.926667 -0.99467,-1.489334 -0.23467,-0.562666 -0.36533,-1.177333 -0.36533,-1.822666 V 55.869332 c 0,-0.645333 0.13066,-1.26 0.36533,-1.822667 0.23333,-0.562666 0.57733,-1.068 0.99467,-1.489333 0.42133,-0.426667 0.92133,-0.770667 1.47333,-1.005333 0.55733,-0.24 1.16667,-0.369334 1.808,-0.369334 0.64,0 1.24933,0.129334 1.80133,0.369334 0.55734,0.234666 1.05734,0.578666 1.47467,1.005333 0.42133,0.421333 0.76,0.926667 0.99467,1.489333 0.23466,0.562667 0.364,1.177334 0.364,1.822667 v 23.969333 c 0,0.645333 -0.12934,1.26 -0.364,1.822666 -0.23467,0.562667 -0.57334,1.068 -0.99467,1.489334 -0.41733,0.428 -0.91733,0.770666 -1.47467,1.005333 -0.552,0.24 -1.16133,0.370667 -1.80133,0.370667 z"
           style="display:inline;fill:#10639b;fill-opacity:1;fill-rule:nonzero;stroke:none;stroke-width:1.33333" />
        <path
           id="path13"
           d="m 182.51076,60.562665 c -0.64134,0 -1.25067,-0.136 -1.808,-0.369333 -0.552,-0.24 -1.052,-0.584 -1.47334,-1.005333 -0.42266,-0.428 -0.76,-0.933334 -0.99466,-1.490667 -0.23467,-0.561333 -0.36534,-1.176 -0.36534,-1.828 V 34.510666 c 0,-0.646667 0.13067,-1.265333 0.36534,-1.828 0.23466,-0.557333 0.572,-1.062667 0.99466,-1.489333 0.42134,-0.422667 0.92134,-0.766667 1.47334,-1.005334 0.55733,-0.234666 1.16666,-0.365333 1.808,-0.365333 0.64,0 1.24933,0.130667 1.80666,0.365333 0.552,0.238667 1.052,0.582667 1.47467,1.005334 0.416,0.426666 0.76,0.932 0.99467,1.489333 0.23466,0.562667 0.364,1.181333 0.364,1.828 v 21.358666 c 0,0.652 -0.12934,1.266667 -0.364,1.828 -0.23467,0.557333 -0.57867,1.062667 -0.99467,1.490667 -0.42267,0.421333 -0.92267,0.765333 -1.47467,1.005333 -0.55733,0.233333 -1.16666,0.369333 -1.80666,0.369333 z"
           style="display:inline;fill:#6dba00;fill-opacity:1;fill-rule:nonzero;stroke:none;stroke-width:1.33333" />
        <path
           id="path14"
           d="m 115.00009,60.562665 c -0.636,0 -1.25067,-0.136 -1.80267,-0.369333 -0.55733,-0.24 -1.05733,-0.584 -1.47333,-1.005333 -0.42133,-0.428 -0.76,-0.933334 -0.99467,-1.490667 -0.23466,-0.561333 -0.36533,-1.176 -0.36533,-1.828 0,-2.468 -0.51467,-4.842667 -1.44267,-7.02 -0.92666,-2.172 -2.26533,-4.141333 -3.91066,-5.802666 -1.64134,-1.661334 -3.58934,-3.016 -5.740003,-3.953334 -2.150666,-0.937333 -4.5,-1.457333 -6.942666,-1.457333 -0.64,0 -1.249333,-0.136 -1.801333,-0.370667 -0.557334,-0.238666 -1.057334,-0.582666 -1.474667,-1.005333 -0.421333,-0.421333 -0.76,-0.926667 -0.994667,-1.489333 -0.234666,-0.562667 -0.364,-1.177334 -0.364,-1.828 0,-0.645333 0.129334,-1.26 0.364,-1.822667 0.234667,-0.562666 0.573334,-1.068 0.994667,-1.489333 0.417333,-0.428 0.917333,-0.770667 1.474667,-1.005333 0.552,-0.24 1.161333,-0.370667 1.801333,-0.370667 3.702666,0 7.26,0.792 10.515999,2.209333 3.25467,1.421334 6.20267,3.468 8.692,5.989333 2.49067,2.516 4.516,5.5 5.91733,8.786667 1.40667,3.290666 2.18667,6.890666 2.18667,10.629333 0,0.652 -0.12933,1.266667 -0.364,1.828 -0.23467,0.557333 -0.57333,1.062667 -0.99467,1.490667 -0.41733,0.421333 -0.91733,0.765333 -1.47466,1.005333 -0.552,0.233333 -1.16667,0.369333 -1.80667,0.369333 z"
           style="display:inline;fill:#ba78f9;fill-opacity:1;fill-rule:nonzero;stroke:none;stroke-width:1.33333" />
        <path
           id="path15"
           d="m 69.656091,60.562665 c -0.64,0 -1.249333,-0.136 -1.806666,-0.369333 -0.552,-0.24 -1.052,-0.584 -1.474667,-1.005333 -0.416,-0.428 -0.754667,-0.933334 -0.994667,-1.490667 -0.234666,-0.561333 -0.358666,-1.176 -0.358666,-1.828 0,-3.738667 0.781333,-7.338667 2.181333,-10.629333 1.406667,-3.286667 3.433333,-6.270667 5.917333,-8.786667 2.489334,-2.521333 5.442667,-4.567999 8.697333,-5.989333 3.250667,-1.417333 6.813334,-2.209333 10.510667,-2.209333 0.641333,0 1.250666,0.130667 1.808,0.370667 0.552,0.234666 1.052,0.577333 1.473333,1.005333 0.417333,0.421333 0.76,0.926667 0.994667,1.489333 0.234666,0.562667 0.365333,1.177334 0.365333,1.822667 0,0.650666 -0.130667,1.265333 -0.365333,1.828 -0.234667,0.562666 -0.577334,1.068 -0.994667,1.489333 -0.421333,0.422667 -0.921333,0.766667 -1.473333,1.005333 -0.557334,0.234667 -1.166667,0.370667 -1.808,0.370667 -2.442667,0 -4.792,0.52 -6.942667,1.457333 -2.145333,0.937334 -4.098666,2.292 -5.74,3.953334 -1.645333,1.661333 -2.983999,3.630666 -3.910666,5.802666 -0.928,2.177333 -1.442667,4.552 -1.442667,7.02 0,0.652 -0.130666,1.266667 -0.365333,1.828 -0.233333,0.557333 -0.572,1.062667 -0.994667,1.490667 -0.416,0.421333 -0.916,0.765333 -1.473333,1.005333 -0.552,0.233333 -1.161333,0.369333 -1.802667,0.369333 z"
           style="display:inline;fill:#9322ff;fill-opacity:1;fill-rule:nonzero;stroke:none;stroke-width:1.33333" />
        <path
           id="path16"
           d="m 92.328091,83.483998 c -3.697333,0 -7.26,-0.790667 -10.510667,-2.208 -3.254666,-1.421333 -6.207999,-3.469333 -8.697333,-5.984 -2.484,-2.516 -4.510666,-5.5 -5.917333,-8.792 -1.4,-3.292 -2.181333,-6.885333 -2.181333,-10.630666 0,-0.645333 0.124,-1.26 0.358666,-1.822667 0.24,-0.562666 0.578667,-1.068 0.994667,-1.489333 0.422667,-0.426667 0.922667,-0.770667 1.474667,-1.005333 0.557333,-0.24 1.166666,-0.369334 1.806666,-0.369334 0.641334,0 1.250667,0.129334 1.802667,0.369334 0.557333,0.234666 1.057333,0.578666 1.473333,1.005333 0.422667,0.421333 0.761334,0.926667 0.994667,1.489333 0.234667,0.562667 0.365333,1.177334 0.365333,1.822667 0,2.474667 0.514667,4.849333 1.442667,7.021333 0.926667,2.172 2.265333,4.14 3.910666,5.802667 1.641334,1.661333 3.594667,3.014666 5.74,3.952 2.150667,0.933333 4.5,1.458666 6.942667,1.458666 0.641333,0 1.250666,0.130667 1.808,0.365333 0.552,0.238667 1.052,0.582667 1.473333,1.004 0.417333,0.428 0.76,0.933334 0.994667,1.496 0.234666,0.561334 0.365333,1.176 0.365333,1.822667 0,0.650667 -0.130667,1.265333 -0.365333,1.828 -0.234667,0.562667 -0.577334,1.068 -0.994667,1.489333 -0.421333,0.426667 -0.921333,0.770667 -1.473333,1.005334 -0.557334,0.24 -1.166667,0.369333 -1.808,0.369333 z"
           style="display:inline;fill:#6f1472;fill-opacity:1;fill-rule:nonzero;stroke:none;stroke-width:1.33333" />
        <path
           d="m 271.23458,45.379063 q -0.45894,0 -0.45894,-0.458935 V 12.437779 q 0,-0.458934 0.45894,-0.458934 h 4.8953 q 4.1814,0 6.11912,2.039708 1.98872,1.988715 1.98872,6.119124 0,2.702613 -0.91787,4.589343 -0.86688,1.88673 -2.65162,2.957576 v 0.101986 q 2.19268,0.713897 3.31452,2.804598 1.17283,2.090701 1.17283,5.405226 0,4.589343 -2.0907,6.986 -2.0907,2.396657 -6.17011,2.396657 z m 2.85559,-3.21254 h 2.70261 q 2.54964,0 3.77346,-1.529781 1.27482,-1.580774 1.27482,-4.895299 0,-3.161548 -1.22383,-4.640336 -1.17283,-1.478788 -3.67147,-1.478788 h -2.85559 z m 0,-15.654759 h 2.49864 q 2.14169,0 3.21254,-1.478788 1.12184,-1.529781 1.12184,-4.436365 0,-2.906584 -1.07085,-4.130408 -1.07084,-1.274818 -3.41651,-1.274818 h -2.34566 z"
           id="text28"
           style="font-size:50.9927px;font-family:'Sofia Sans Extra Condensed';fill:#ffffff;stroke-width:1.34069"
           transform="scale(0.99451581,1.0055144)"
           aria-label="B" />
        <path
           d="m 295.2522,45.685019 q -3.41651,0 -5.04828,-1.988715 -1.63177,-2.039708 -1.63177,-6.22111 v -8.923722 q 0,-4.232394 1.63177,-6.221109 1.63177,-2.039708 5.04828,-2.039708 3.41651,0 5.04827,2.039708 1.63177,1.988715 1.63177,6.221109 v 8.923722 q 0,4.181402 -1.63177,6.22111 -1.63176,1.988715 -5.04827,1.988715 z m 0,-3.21254 q 1.78474,0 2.54963,-1.172832 0.81588,-1.172832 0.81588,-3.875445 v -8.770745 q 0,-2.753605 -0.81588,-3.97743 -0.76489,-1.223825 -2.54963,-1.223825 -1.78475,0 -2.60063,1.223825 -0.76489,1.223825 -0.76489,3.97743 v 8.770745 q 0,2.702613 0.81588,3.875445 0.81588,1.172832 2.54964,1.172832 z"
           id="text27"
           style="font-size:50.9927px;font-family:'Sofia Sans Extra Condensed';fill:#ffffff;stroke-width:1.34069"
           transform="scale(0.99451581,1.0055144)"
           aria-label="o" />
        <path
           d="m 316.26116,45.379063 q -0.35695,0 -0.35695,-0.458935 V 26.715735 q 0,-1.682759 -0.50993,-2.44765 -0.50992,-0.815883 -1.63176,-0.815883 -1.01986,0 -2.19269,0.866876 -1.12184,0.815883 -2.39666,2.44765 l -0.25496,-2.753606 q 1.47879,-1.835737 2.90659,-2.753606 1.47878,-0.968861 3.16154,-0.968861 2.0907,0 3.16155,1.529781 1.07085,1.529781 1.07085,4.691328 v 18.408364 q 0,0.458935 -0.35695,0.458935 z m -9.68861,0 q -0.35695,0 -0.35695,-0.458935 V 26.715735 q 0,-2.141693 -0.051,-3.467504 0,-1.376802 -0.10199,-2.0907 -0.051,-0.56092 0.30596,-0.56092 h 2.19268 q 0.40794,0 0.45894,0.458934 0.15297,0.968862 0.20397,2.44765 0.10198,1.478788 0.10198,2.243679 l 0.20397,0.305956 v 18.867298 q 0,0.458935 -0.35695,0.458935 z"
           id="text26"
           style="font-size:50.9927px;font-family:'Sofia Sans Extra Condensed';fill:#ffffff;stroke-width:1.34069"
           transform="scale(0.99451581,1.0055144)"
           aria-label="n" />
        <path
           d="m 329.06032,45.685019 q -3.11056,0 -4.53835,-1.937723 -1.4278,-1.937722 -1.17283,-5.660189 0,-0.407942 0.35695,-0.407942 h 2.60062 q 0.30596,0 0.30596,0.356949 -0.051,2.44765 0.45893,3.467504 0.56092,1.019854 2.0907,1.019854 2.60063,0 2.60063,-3.365519 0,-1.32581 -0.45893,-2.192686 -0.40794,-0.917868 -1.4278,-1.733751 l -3.36552,-2.651621 q -1.58077,-1.223824 -2.29467,-2.753605 -0.7139,-1.580774 -0.7139,-3.77346 0,-2.753606 1.4278,-4.232394 1.47879,-1.529781 4.23239,-1.529781 2.8556,0 4.28339,1.733752 1.47879,1.733751 1.17283,4.742321 0,0.407941 -0.35695,0.407941 h -2.54963 q -0.10199,0 -0.25496,-0.05099 -0.10199,-0.05099 -0.051,-0.458935 0.10199,-1.529781 -0.45893,-2.396657 -0.56092,-0.866875 -1.88673,-0.866875 -2.34567,0 -2.34567,2.65162 0,1.274817 0.45894,2.141693 0.50993,0.866876 1.47879,1.733752 l 3.31452,2.65162 q 1.73375,1.427796 2.34567,2.804599 0.6629,1.376803 0.6629,3.620481 0,3.263533 -1.52978,4.997285 -1.47879,1.682759 -4.38537,1.682759 z"
           id="text25"
           style="font-size:50.9927px;font-family:'Sofia Sans Extra Condensed';fill:#ffffff;stroke-width:1.34069"
           transform="scale(0.99451581,1.0055144)"
           aria-label="s" />
        <path
           d="m 347.62165,45.379063 q -0.30596,0 -0.35695,-0.458935 -0.10199,-0.917868 -0.20397,-2.294671 -0.10199,-1.427796 -0.10199,-2.396657 l -0.20397,-0.254963 v -12.85016 q 0,-2.090701 -0.50992,-2.855592 -0.45894,-0.815883 -1.93773,-0.815883 -1.42779,0 -1.98871,0.815883 -0.56092,0.764891 -0.40794,2.549635 0,0.458935 -0.40795,0.458935 h -2.24367 q -0.50993,0 -0.56092,-0.611913 -0.25497,-3.008569 1.17283,-4.691328 1.47879,-1.682759 4.48736,-1.682759 3.11055,0 4.38537,1.478788 1.32581,1.478788 1.32581,5.252248 v 12.238248 q 0,2.039708 0.051,3.467503 0.051,1.427796 0.10199,2.141694 0.051,0.509927 -0.25497,0.509927 z m -5.45622,0.305956 q -1.98872,0 -3.11055,-1.733752 -1.07085,-1.733752 -1.07085,-4.844306 0,-3.467504 1.52978,-5.558204 1.52978,-2.141694 4.99728,-2.498643 l 2.65162,-0.305956 v 2.702613 l -2.29467,0.305956 q -1.78474,0.203971 -2.70261,1.478789 -0.86688,1.274817 -0.86688,3.620481 0,1.682759 0.50993,2.651621 0.50993,0.968861 1.3768,0.968861 0.86688,0 1.73376,-0.662905 0.91786,-0.713898 2.34566,-2.600628 l 0.15298,2.957577 q -1.52978,1.886729 -2.65162,2.702613 -1.12184,0.815883 -2.60063,0.815883 z"
           id="text24"
           style="font-size:50.9927px;font-family:'Sofia Sans Extra Condensed';fill:#ffffff;stroke-width:1.34069"
           transform="scale(0.99451581,1.0055144)"
           aria-label="a" />
        <path
           d="m 355.11759,45.379063 q -0.35695,0 -0.35695,-0.458935 V 21.055545 q 0,-0.458934 0.35695,-0.458934 h 2.60063 q 0.35695,0 0.35695,0.458934 v 23.864583 q 0,0.458935 -0.35695,0.458935 z m 1.32581,-29.320802 q -1.12184,0 -1.68276,-0.56092 -0.56092,-0.560919 -0.56092,-1.631766 v -0.458934 q 0,-1.070847 0.56092,-1.631767 0.56092,-0.611912 1.68276,-0.611912 1.12184,0 1.63177,0.611912 0.56092,0.56092 0.56092,1.631767 v 0.458934 q 0,1.070847 -0.56092,1.631766 -0.50993,0.56092 -1.63177,0.56092 z"
           id="text23"
           style="font-size:50.9927px;font-family:'Sofia Sans Extra Condensed';fill:#ffffff;stroke-width:1.34069"
           transform="scale(0.99451581,1.0055144)"
           aria-label="i" />
        <path
           d="m 278.73049,84.488604 q -3.82445,0 -5.91515,-2.345664 -2.03971,-2.345664 -2.03971,-7.087985 V 60.012109 q 0,-4.844307 2.03971,-7.189971 2.0907,-2.345664 5.91515,-2.345664 3.82446,0 5.91516,2.345664 2.0907,2.345664 2.0907,7.189971 v 15.042846 q 0,4.742321 -2.0907,7.087985 -2.0907,2.345664 -5.91516,2.345664 z m 0,-3.21254 q 2.29468,0 3.46751,-1.529781 1.22382,-1.580774 1.22382,-4.946292 V 60.216079 q 0,-3.41651 -1.22382,-4.946291 -1.17283,-1.580774 -3.46751,-1.580774 -2.24367,0 -3.4675,1.580774 -1.17283,1.529781 -1.17283,4.946291 v 14.583912 q 0,3.365518 1.17283,4.946292 1.22383,1.529781 3.4675,1.529781 z"
           id="text22"
           style="font-size:50.9927px;font-family:'Sofia Sans Extra Condensed';fill:#ffffff;stroke-width:1.34069"
           transform="scale(0.99451584,1.0055144)"
           aria-label="O" />
        <path
           d="m 301.32027,84.182648 q -0.35695,0 -0.35695,-0.458935 V 65.51932 q 0,-1.682759 -0.50992,-2.44765 -0.50993,-0.815883 -1.63177,-0.815883 -1.01985,0 -2.19269,0.866876 -1.12184,0.815883 -2.39665,2.44765 l -0.25497,-2.753606 q 1.47879,-1.835737 2.90659,-2.753606 1.47879,-0.968861 3.16154,-0.968861 2.09071,0 3.16155,1.529781 1.07085,1.529781 1.07085,4.691328 v 18.408364 q 0,0.458935 -0.35695,0.458935 z m -9.68861,0 q -0.35695,0 -0.35695,-0.458935 V 65.51932 q 0,-2.141693 -0.051,-3.467504 0,-1.376802 -0.10199,-2.0907 -0.051,-0.56092 0.30596,-0.56092 h 2.19268 q 0.40795,0 0.45894,0.458934 0.15298,0.968862 0.20397,2.44765 0.10199,1.478788 0.10199,2.243679 l 0.20397,0.305956 v 18.867298 q 0,0.458935 -0.35695,0.458935 z"
           id="text21"
           style="font-size:50.9927px;font-family:'Sofia Sans Extra Condensed';fill:#ffffff;stroke-width:1.34069"
           transform="scale(0.99451584,1.0055144)"
           aria-label="n" />
        <path
           d="m 309.32612,84.182648 q -0.35695,0 -0.35695,-0.458935 V 59.85913 q 0,-0.458934 0.35695,-0.458934 h 2.60063 q 0.35694,0 0.35694,0.458934 v 23.864583 q 0,0.458935 -0.35694,0.458935 z m 1.32581,-29.320802 q -1.12184,0 -1.68276,-0.56092 -0.56092,-0.560919 -0.56092,-1.631766 v -0.458934 q 0,-1.070847 0.56092,-1.631767 0.56092,-0.611912 1.68276,-0.611912 1.12184,0 1.63176,0.611912 0.56092,0.56092 0.56092,1.631767 v 0.458934 q 0,1.070847 -0.56092,1.631766 -0.50992,0.56092 -1.63176,0.56092 z"
           id="text20"
           style="font-size:50.9927px;font-family:'Sofia Sans Extra Condensed';fill:#ffffff;stroke-width:1.34069"
           transform="scale(0.99451584,1.0055144)"
           aria-label="i" />
        <path
           d="m 315.49621,84.182648 q -0.20397,0 -0.30596,-0.152978 -0.051,-0.203971 0.051,-0.407942 l 5.25224,-12.238248 -4.8443,-11.473357 q -0.10199,-0.203971 -0.051,-0.356949 0.051,-0.152978 0.25497,-0.152978 h 2.7536 q 0.40795,0 0.50993,0.305956 l 1.83574,4.997285 q 0.40794,0.968861 0.76489,2.141693 0.40794,1.12184 0.76489,2.141694 h 0.051 q 0.40794,-1.019854 0.76489,-2.141694 0.40794,-1.172832 0.76489,-2.141693 l 1.88673,-5.048277 q 0.15298,-0.254964 0.45894,-0.254964 h 2.7536 q 0.20397,0 0.25497,0.152978 0.051,0.152978 -0.051,0.356949 l -4.8953,11.371372 5.35424,12.340233 q 0.051,0.203971 0,0.407942 -0.051,0.152978 -0.25497,0.152978 h -2.85559 q -0.30595,0 -0.45893,-0.254964 l -2.14169,-5.711182 q -0.35695,-1.070847 -0.81589,-2.243679 -0.40794,-1.172832 -0.81588,-2.192686 h -0.051 q -0.35695,1.019854 -0.76489,2.243679 -0.40795,1.172832 -0.81589,2.192686 l -2.19268,5.711182 q -0.10199,0.254964 -0.50993,0.254964 z"
           id="text19"
           style="font-size:50.9927px;font-family:'Sofia Sans Extra Condensed';fill:#ffffff;stroke-width:1.34069"
           transform="scale(0.99451584,1.0055144)"
           aria-label="x" />
        <path
           d="m 332.17083,84.182648 q -0.45893,0 -0.45893,-0.458935 v -2.345664 q 0,-0.458934 0.45893,-0.458934 h 4.53835 l 0.051,-26.108262 -4.48735,1.784745 q -0.15298,0.05099 -0.30596,0 -0.10199,-0.101986 -0.10199,-0.305956 v -2.396657 q 0,-0.305956 0.30596,-0.458935 l 6.57806,-2.702613 q 0.25496,-0.152978 0.50993,-0.152978 h 0.35695 q 0.45893,0 0.45893,0.458935 v 29.881721 h 4.13041 q 0.45893,0 0.45893,0.458934 v 2.345664 q 0,0.458935 -0.45893,0.458935 z"
           id="text18"
           style="font-size:50.9927px;font-family:'Sofia Sans Extra Condensed';fill:#ffffff;stroke-width:1.34069"
           transform="scale(0.99451584,1.0055144)"
           aria-label="1" />
      </g>
    </g>
  </g>
</svg>
